# xmcd CD database file
# Copyright (C) 1993-1998 Ti Kan
#
# Track frame offsets:
# 150
# 17975
# 38250
# 60175
# 80375
# 99587
# 115875
# 130425
# 144025
# 164400
# 183450
# 206675
# 222125
# 239600
# 258775
# 280875
# 293875
# 308550
#
# Disc length: 4410 seconds
# Revision: 0
# Processed by: cddbd v1.4b41PL1 Copyright (c) Steve Scherf et al.
# Submitted via: CDSpectrumPro v3.3.333
#
DISCID=f7113812
DTITLE=Peter Uppman - 34 Golden Trumpet Favourites
DYEAR=1900
DGENRE=
TTITLE0=Beauty and the beast
TTITLE1=I will always love you
TTITLE2=Separate lives
TTITLE3=Amigos para siempre (friends for life)
TTITLE4=All at once
TTITLE5=Bring him home
TTITLE6=Have you ever been in love
TTITLE7=Hold me now
TTITLE8=How am I supposed to live without you?
TTITLE9=Just the way you are
TTITLE10=Solitaire
TTITLE11=Nothing'd gonna change my love for you
TTITLE12=Please don't ask me
TTITLE13=Sometimes when we touch
TTITLE14=The greatest love of all
TTITLE15=Truly
TTITLE16=The way we were
TTITLE17=We are the world
EXTD=
EXTT0=
EXTT1=
EXTT2=
EXTT3=
EXTT4=
EXTT5=
EXTT6=
EXTT7=
EXTT8=
EXTT9=
EXTT10=
EXTT11=
EXTT12=
EXTT13=
EXTT14=
EXTT15=
EXTT16=
EXTT17=
PLAYORDER=
